<svg width="100" height="100" viewBox="0 0 100 100" fill="none" xmlns="http://www.w3.org/2000/svg">
<g clip-path="url(#clip0_1_2)">
<path d="M36.032 81.176L33.8275 85.6638L33.8428 85.6713L33.8583 85.6788L36.032 81.176ZM27.392 73.784L23.1806 76.4793L23.2122 76.5285L23.2448 76.577L27.392 73.784ZM26.72 58.616L24.2214 54.2851L24.1843 54.3065L24.1475 54.3285L26.72 58.616ZM33.44 57.176L38.372 57.998L39.3423 52.176H33.44V57.176ZM37.184 71.864L33.6913 75.4419H33.6913L37.184 71.864ZM59.744 71.768L63.2795 75.3035L63.3003 75.2827L63.3209 75.2617L59.744 71.768ZM63.776 23.768H68.776V18.768H63.776V23.768ZM45.248 15.8V10.8H40.248V15.8H45.248ZM71.552 17.048L68.0165 20.5835L68.0871 20.6542L68.1606 20.722L71.552 17.048ZM69.632 72.44L65.3243 69.9015L65.3074 69.9303L65.2908 69.9593L69.632 72.44ZM60.992 80.888L63.3489 85.2977L63.3782 85.282L63.4074 85.2659L60.992 80.888ZM48.416 78.864C44.5467 78.864 41.1729 78.1057 38.2057 76.6732L33.8583 85.6788C38.3151 87.8303 43.1973 88.864 48.416 88.864V78.864ZM38.2365 76.6882C35.3123 75.2518 33.1264 73.3478 31.5392 70.991L23.2448 76.577C25.8816 80.4922 29.4557 83.5162 33.8275 85.6638L38.2365 76.6882ZM31.6034 71.0887C30.0851 68.7165 29.32 66.1045 29.32 63.128H19.32C19.32 67.9595 20.6029 72.4515 23.1806 76.4793L31.6034 71.0887ZM29.32 63.128C29.32 62.9404 29.3384 62.8345 29.3478 62.7926C29.3565 62.7541 29.3578 62.7681 29.3344 62.8121C29.31 62.8578 29.2787 62.8991 29.2517 62.9267C29.2268 62.9523 29.2308 62.9405 29.2925 62.9035L24.1475 54.3285C20.8725 56.2935 19.32 59.5301 19.32 63.128H29.32ZM29.2186 62.9469C29.8493 62.5831 31.1195 62.176 33.44 62.176V52.176C30.1285 52.176 26.9187 52.7289 24.2214 54.2851L29.2186 62.9469ZM28.508 56.354C28.2667 57.8021 28.152 59.2945 28.152 60.824H38.152C38.152 59.7935 38.2293 58.8539 38.372 57.998L28.508 56.354ZM28.152 60.824C28.152 66.5356 29.8027 71.6458 33.6913 75.4419L40.6767 68.2861C39.1893 66.8342 38.152 64.5844 38.152 60.824H28.152ZM33.6913 75.4419C37.5532 79.2118 42.6896 80.8 48.416 80.8V70.8C44.5424 70.8 42.1908 69.7642 40.6767 68.2861L33.6913 75.4419ZM48.416 80.8C54.2176 80.8 59.4109 79.1722 63.2795 75.3035L56.2085 68.2325C54.7011 69.7398 52.3424 70.8 48.416 70.8V80.8ZM63.3209 75.2617C67.1462 71.3453 68.776 66.1518 68.776 60.344H58.776C58.776 64.2642 57.7178 66.6867 56.1671 68.2743L63.3209 75.2617ZM68.776 60.344V23.768H58.776V60.344H68.776ZM63.776 18.768H52.16V28.768H63.776V18.768ZM52.16 18.768C51.4766 18.768 51.1001 18.6683 50.9294 18.6027C50.7888 18.5487 50.7632 18.5114 50.7529 18.4996C50.707 18.4466 50.248 17.8458 50.248 15.8H40.248C40.248 19.0662 40.941 22.4494 43.1991 25.0524C45.575 27.7913 48.8855 28.768 52.16 28.768V18.768ZM45.248 20.8H68.48V10.8H45.248V20.8ZM68.48 20.8C68.5077 20.8 68.4211 20.8024 68.2781 20.7443C68.1319 20.6849 68.0419 20.609 68.0165 20.5835L75.0875 13.5125C73.2834 11.7083 70.9725 10.8 68.48 10.8V20.8ZM68.1606 20.722C68.0784 20.6461 67.9607 20.5011 67.877 20.3016C67.7969 20.1104 67.8 19.9937 67.8 20.024H77.8C77.8 17.5281 76.8828 15.1642 74.9434 13.374L68.1606 20.722ZM67.8 20.024V60.344H77.8V20.024H67.8ZM67.8 60.344C67.8 64.0023 66.9483 67.1457 65.3243 69.9015L73.9397 74.9785C76.5397 70.5663 77.8 65.6457 77.8 60.344H67.8ZM65.2908 69.9593C63.7111 72.7237 61.5075 74.8931 58.5766 76.5101L63.4074 85.2659C67.9005 82.7869 71.4569 79.3243 73.9732 74.9207L65.2908 69.9593ZM58.6351 76.4783C55.7253 78.0336 52.3579 78.864 48.416 78.864V88.864C53.8181 88.864 58.8347 87.7104 63.3489 85.2977L58.6351 76.4783Z" fill="#8095E2"/>
</g>
<defs>
<clipPath id="clip0_1_2">
<rect width="100" height="100" fill="white"/>
</clipPath>
</defs>
</svg>
